<?xml version="1.0" encoding="UTF-8"?>
<svg width="153px" height="25px" viewBox="0 0 153 25" version="1.1" xmlns="http://www.w3.org/2000/svg" xmlns:xlink="http://www.w3.org/1999/xlink">
    <!-- Generator: Sketch 61.2 (89653) - https://sketch.com -->
    <title>logo / logo_header 2</title>
    <desc>Created with Sketch.</desc>
    <defs>
        <polygon id="path-1" points="61.4412802 22.7510567 122.882436 22.7510567 122.882436 8.34224599e-05 61.4412802 8.34224599e-05 0.000124752475 8.34224599e-05 0.000124752475 22.7510567"></polygon>
    </defs>
    <g id="홈/미니인턴/m클래스/기업정보" stroke="none" stroke-width="1" fill="none" fill-rule="evenodd">
        <g id="logo-/-logo_header-2">
            <g id="logo-/-logo_header">
                <path d="M64.5122772,23.3847059 L67.6913861,23.3847059 L67.6913861,22.8647059 L65.3585149,22.8647059 L66.1590099,22.0541176 C67.0433663,21.1517647 67.5770297,20.54 67.5770297,19.6529412 C67.5770297,18.7352941 67.020495,18.1617647 65.9912871,18.1617647 C65.4118812,18.1617647 64.8934653,18.4217647 64.5732673,18.6282353 L64.7486139,19.11 C65.0459406,18.9035294 65.4576238,18.6894118 65.8921782,18.6894118 C66.6164356,18.6894118 66.9442574,19.0258824 66.9442574,19.7064706 C66.9442574,20.4405882 66.4563366,20.9988235 65.7320792,21.7558824 L64.5122772,23.0252941 L64.5122772,23.3847059 Z M74.1258416,20.2494118 C73.1042574,20.1347059 71.739604,19.4541176 71.7091089,18.5135294 L73.8513861,18.5135294 L73.8513861,18.0317647 L68.9416832,18.0317647 L68.9416832,18.5135294 L71.0992079,18.5135294 C71.0687129,19.4464706 69.780297,20.15 68.690099,20.2647059 L68.9569307,20.7541176 C70.0928713,20.5629412 71.129703,19.8747059 71.3965347,19.2476471 C71.7014851,19.8747059 72.7611881,20.5476471 73.8513861,20.7388235 L74.1258416,20.2494118 Z M71.6786139,24.2411765 L71.6786139,21.8476471 L74.4079208,21.8476471 L74.4079208,21.3582353 L68.3927723,21.3582353 L68.3927723,21.8476471 L71.0992079,21.8476471 L71.0992079,24.2411765 L71.6786139,24.2411765 Z M78.3722772,21.2435294 L78.3722772,18.1464706 L75.2160396,18.1464706 L75.2160396,21.2435294 L78.3722772,21.2435294 Z M77.7928713,20.7617647 L75.7954455,20.7617647 L75.7954455,18.6282353 L77.7928713,18.6282353 L77.7928713,20.7617647 Z M81.1244554,20.0429412 L81.1244554,19.5535294 L80.110495,19.5535294 L80.110495,17.5576471 L79.5310891,17.5576471 L79.5310891,22.4135294 L80.110495,22.4135294 L80.110495,20.0429412 L81.1244554,20.0429412 Z M80.369703,24.0117647 L80.369703,23.53 L76.519703,23.53 L76.519703,21.9547059 L75.940297,21.9547059 L75.940297,24.0117647 L80.369703,24.0117647 Z M83.1523762,18.1388235 C82.1841584,18.1388235 81.6886139,19.0870588 81.6886139,20.4252941 C81.6886139,21.7711765 82.1841584,22.7117647 83.1523762,22.7117647 C84.0672277,22.7117647 84.5551485,21.8935294 84.6161386,20.6852941 L85.3327723,20.6852941 L85.3327723,23.92 L85.8969307,23.92 L85.8969307,17.6876471 L85.3327723,17.6876471 L85.3327723,20.2035294 L84.6161386,20.2035294 C84.570396,18.9876471 84.0748515,18.1388235 83.1523762,18.1388235 L83.1523762,18.1388235 Z M84.0443564,20.4252941 C84.0443564,21.5111765 83.6936634,22.1994118 83.1523762,22.1994118 C82.6187129,22.1994118 82.2756436,21.5111765 82.2756436,20.4252941 C82.2756436,19.3470588 82.6187129,18.6511765 83.1523762,18.6511765 C83.6936634,18.6511765 84.0443564,19.3470588 84.0443564,20.4252941 L84.0443564,20.4252941 Z M87.2005941,24.2411765 L87.2005941,17.5576471 L86.6288119,17.5576471 L86.6288119,24.2411765 L87.2005941,24.2411765 Z M95.6248515,20.9758824 L95.6248515,17.5576471 L95.0454455,17.5576471 L95.0454455,20.9758824 L95.6248515,20.9758824 Z M94.1610891,20.3870588 C93.3377228,20.0888235 92.4609901,19.4388235 92.4609901,18.3605882 L92.4609901,17.7870588 L91.8739604,17.7870588 L91.8739604,18.3835294 C91.8739604,19.4541176 91.0277228,20.2570588 90.1662376,20.6011765 L90.4864356,21.0447059 C91.2869307,20.6623529 91.9806931,20.0123529 92.1865347,19.3241176 C92.4991089,20.0276471 93.17,20.5782353 93.8332673,20.8382353 L94.1610891,20.3870588 Z M95.8764356,24.1647059 L95.8764356,23.6905882 L91.8739604,23.6905882 L91.8739604,22.9411765 L95.6248515,22.9411765 L95.6248515,21.3429412 L91.2793069,21.3429412 L91.2793069,21.8170588 L95.0454455,21.8170588 L95.0454455,22.5052941 L91.2945545,22.5052941 L91.2945545,24.1647059 L95.8764356,24.1647059 Z M102.036436,20.6317647 L102.036436,17.9323529 L97.5155446,17.9323529 L97.5155446,20.6317647 L102.036436,20.6317647 Z M101.45703,20.15 L98.1025743,20.15 L98.1025743,18.4141176 L101.45703,18.4141176 L101.45703,20.15 Z M100.061881,24.2488235 L100.061881,21.97 L102.791188,21.97 L102.791188,21.4805882 L96.7760396,21.4805882 L96.7760396,21.97 L99.4824752,21.97 L99.4824752,24.2488235 L100.061881,24.2488235 Z M110.872376,22.9411765 C110.872376,22.1688235 110.04901,21.6794118 108.608119,21.6794118 C107.15198,21.6794118 106.336238,22.1688235 106.336238,22.9411765 C106.336238,23.7211765 107.15198,24.2105882 108.608119,24.2105882 C110.04901,24.2105882 110.872376,23.7211765 110.872376,22.9411765 L110.872376,22.9411765 Z M108.608119,22.1688235 C109.660198,22.1688235 110.277723,22.4517647 110.277723,22.9411765 C110.277723,23.4382353 109.660198,23.7288235 108.608119,23.7288235 C107.55604,23.7288235 106.938515,23.4382353 106.938515,22.9411765 C106.938515,22.4517647 107.55604,22.1688235 108.608119,22.1688235 L108.608119,22.1688235 Z M108.768218,20.6470588 L110.239604,20.6470588 L110.239604,21.7788235 L110.81901,21.7788235 L110.81901,17.5576471 L110.239604,17.5576471 L110.239604,18.7658824 L108.87495,18.7658824 L108.87495,19.2476471 L110.239604,19.2476471 L110.239604,20.1652941 L108.768218,20.1652941 L108.768218,20.6470588 Z M108.806337,18.0776471 L105.741584,18.0776471 L105.741584,18.5747059 L108.150693,18.5747059 C107.952475,19.7064706 106.824158,20.8152941 105.451881,21.1976471 L105.741584,21.6947059 C107.502673,21.0752941 108.707228,19.76 108.806337,18.0776471 L108.806337,18.0776471 Z M117.421188,24.1417647 L117.421188,22.0464706 L113.113762,22.0464706 L113.113762,24.1417647 L117.421188,24.1417647 Z M116.841782,23.66 L113.693168,23.66 L113.693168,22.5282353 L116.841782,22.5282353 L116.841782,23.66 Z M117.413564,21.6870588 L117.413564,17.5576471 L116.834158,17.5576471 L116.834158,19.7141176 L115.690594,19.7141176 L115.690594,20.1958824 L116.834158,20.1958824 L116.834158,21.6870588 L117.413564,21.6870588 Z M114.882475,18.1923529 L114.882475,17.7029412 L112.968911,17.7029412 L112.968911,18.1923529 L114.882475,18.1923529 Z M115.850693,19.1405882 L115.850693,18.6664706 L111.962574,18.6664706 L111.962574,19.1405882 L115.850693,19.1405882 Z M115.5,20.54 C115.5,19.8517647 114.821485,19.4388235 113.921881,19.4388235 C113.022277,19.4388235 112.343762,19.8517647 112.343762,20.54 C112.343762,21.2129412 113.029901,21.6411765 113.921881,21.6411765 C114.821485,21.6411765 115.5,21.2052941 115.5,20.54 L115.5,20.54 Z M114.928218,20.54 C114.928218,20.9452941 114.455545,21.19 113.921881,21.19 C113.411089,21.19 112.915545,20.9452941 112.915545,20.54 C112.915545,20.1270588 113.403465,19.89 113.921881,19.89 C114.455545,19.89 114.928218,20.1270588 114.928218,20.54 L114.928218,20.54 Z M124.579901,20.9376471 L124.579901,20.4482353 L118.564752,20.4482353 L118.564752,20.9376471 L124.579901,20.9376471 Z M123.90901,18.8117647 C123.90901,18.0776471 123.024653,17.6494118 121.576139,17.6494118 C120.142871,17.6494118 119.258515,18.0776471 119.258515,18.8117647 C119.258515,19.5458824 120.142871,19.9664706 121.576139,19.9664706 C123.024653,19.9664706 123.90901,19.5458824 123.90901,18.8117647 L123.90901,18.8117647 Z M121.576139,18.1235294 C122.635842,18.1235294 123.32198,18.3911765 123.32198,18.8117647 C123.32198,19.2247059 122.635842,19.4847059 121.576139,19.4847059 C120.531683,19.4847059 119.853168,19.2247059 119.853168,18.8117647 C119.853168,18.3911765 120.531683,18.1235294 121.576139,18.1235294 L121.576139,18.1235294 Z M124.046238,24.18 L124.046238,23.7058824 L119.845545,23.7058824 L119.845545,23.0329412 L123.825149,23.0329412 L123.825149,21.5341176 L119.250891,21.5341176 L119.250891,22.0005882 L123.245743,22.0005882 L123.245743,22.5894118 L119.266139,22.5894118 L119.266139,24.18 L124.046238,24.18 Z M130.549307,21.2435294 L130.549307,18.1464706 L127.393069,18.1464706 L127.393069,21.2435294 L130.549307,21.2435294 Z M129.969901,20.7617647 L127.972475,20.7617647 L127.972475,18.6282353 L129.969901,18.6282353 L129.969901,20.7617647 Z M133.301485,20.0429412 L133.301485,19.5535294 L132.287525,19.5535294 L132.287525,17.5576471 L131.708119,17.5576471 L131.708119,22.4135294 L132.287525,22.4135294 L132.287525,20.0429412 L133.301485,20.0429412 Z M132.546733,24.0117647 L132.546733,23.53 L128.696733,23.53 L128.696733,21.9547059 L128.117327,21.9547059 L128.117327,24.0117647 L132.546733,24.0117647 Z M139.049802,21.3658824 L139.049802,20.8841176 L135.093069,20.8841176 L135.093069,18.7047059 L138.988812,18.7047059 L138.988812,18.2229412 L134.513663,18.2229412 L134.513663,21.3658824 L139.049802,21.3658824 Z M139.774059,23.3235294 L139.774059,22.8341176 L133.758911,22.8341176 L133.758911,23.3235294 L139.774059,23.3235294 Z M145.99505,24.2411765 L145.99505,17.5576471 L145.423267,17.5576471 L145.423267,24.2411765 L145.99505,24.2411765 Z M144.676139,23.9047059 L144.676139,17.7182353 L144.11198,17.7182353 L144.11198,19.9664706 L142.930297,19.9664706 L142.930297,20.4558824 L144.11198,20.4558824 L144.11198,23.9047059 L144.676139,23.9047059 Z M143.707921,22.1305882 C142.983663,21.6488235 142.20604,20.6776471 142.20604,19.3776471 L142.20604,18.1770588 L141.634257,18.1770588 L141.634257,19.3929412 C141.634257,20.7005882 140.963366,21.84 140.208614,22.3217647 L140.566931,22.7576471 C141.230198,22.2758824 141.779109,21.4041176 141.92396,20.6394118 C142.137426,21.3964706 142.838812,22.1917647 143.349604,22.5588235 L143.707921,22.1305882 Z M152.353267,19.7370588 C152.353267,18.7047059 151.400297,18.0011765 149.944158,18.0011765 C148.510891,18.0011765 147.550297,18.7047059 147.550297,19.7370588 C147.550297,20.7694118 148.510891,21.4576471 149.944158,21.4576471 C151.392673,21.4576471 152.353267,20.7694118 152.353267,19.7370588 L152.353267,19.7370588 Z M151.796733,19.7370588 C151.796733,20.4864706 151.057228,20.9911765 149.944158,20.9911765 C148.838713,20.9911765 148.106832,20.4864706 148.106832,19.7370588 C148.106832,18.9876471 148.838713,18.4829412 149.944158,18.4829412 C151.064851,18.4829412 151.796733,18.9876471 151.796733,19.7370588 L151.796733,19.7370588 Z M152.963168,23.3923529 L152.963168,22.9029412 L151.453663,22.9029412 L151.453663,21.6564706 L150.874257,21.6411765 L150.874257,22.9029412 L149.014059,22.9029412 L149.014059,21.6411765 L148.434653,21.6564706 L148.434653,22.9029412 L146.94802,22.9029412 L146.94802,23.3923529 L152.963168,23.3923529 Z" id="2주만에-실무-경험을-만드세요" fill="#ABB1B1"></path>
                <g id="Page-1" stroke-width="1" transform="translate(0.762376, 0.764706)">
                    <mask id="mask-2" fill="white">
                        <use xlink:href="#path-1"></use>
                    </mask>
                    <g id="Clip-2"></g>
                    <path d="M51.5212337,22.7510567 C47.7923822,22.7510567 44.2340257,20.9975166 42.0217485,17.9868 L44.0327584,16.4347251 C45.8275307,18.7934952 48.5662634,20.2212706 51.5212337,20.2212706 C54.476204,20.2212706 57.2149366,18.7934952 59.0404812,16.4347251 L61.0519069,17.9868 C58.8084416,20.9975166 55.2654713,22.7510567 51.5212337,22.7510567 L51.5212337,22.7510567 Z M118.75159,3.0108 C121.335214,2.97951658 122.88256,4.99708877 122.88256,7.54230802 L122.88256,15.0690995 L119.803669,15.0690995 L119.803669,7.85263957 C119.803669,6.51788021 118.952857,5.30742032 117.57559,5.36957005 C116.446164,5.41628663 115.564164,6.20754866 115.007352,7.21654332 L115.007352,15.0690995 L111.913075,15.0690995 L111.913075,3.24354866 L115.007352,3.24354866 L115.007352,4.88863957 C116.012857,3.69361283 117.173471,3.02623316 118.75159,3.0108 L118.75159,3.0108 Z M37.5348178,3.0108 C40.1184416,2.97951658 41.6657881,4.99708877 41.6657881,7.54230802 L41.6657881,15.0690995 L38.586897,15.0690995 L38.586897,7.85263957 C38.586897,6.51788021 37.7356693,5.30742032 36.3588178,5.36957005 C35.2293921,5.41628663 34.3473921,6.20754866 33.7905802,7.21654332 L33.7905802,15.0690995 L30.696303,15.0690995 L30.696303,3.24354866 L33.7905802,3.24354866 L33.7905802,4.88863957 C34.7960851,3.69361283 35.956699,3.02623316 37.5348178,3.0108 L37.5348178,3.0108 Z M68.5245802,3.0108 C71.1086198,2.97951658 72.6559663,4.99708877 72.6559663,7.54230802 L72.6559663,15.0690995 L69.5770752,15.0690995 L69.5770752,7.85263957 C69.5770752,6.51788021 68.7258475,5.30742032 67.348996,5.36957005 C66.2195703,5.41628663 65.3375703,6.20754866 64.7807584,7.21654332 L64.7807584,15.0690995 L61.6860653,15.0690995 L61.6860653,3.24354866 L64.7807584,3.24354866 L64.7807584,4.88863957 C65.7862634,3.69361283 66.9464614,3.02623316 68.5245802,3.0108 L68.5245802,3.0108 Z M47.2509564,7.52687487 L49.4944218,5.72661818 L49.4944218,3.24354866 L46.1527188,3.24354866 L46.1527188,15.0690995 L49.4944218,15.0690995 L49.4944218,9.35799786 L47.2509564,7.52687487 Z M94.1512337,7.94565561 C94.0277287,6.42486417 93.3623822,5.0592385 91.7684614,5.0592385 C90.1749564,5.0592385 89.4168772,6.33184813 89.246798,7.94565561 L94.1512337,7.94565561 Z M91.6915307,2.93321711 C95.6985802,2.94865027 97.1993525,5.6799016 97.1527782,9.37343102 L97.1527782,9.82349519 L89.2002238,9.82349519 C89.3707188,11.9962332 90.700996,13.0360941 92.7278079,13.0360941 C94.3371149,13.0360941 95.5900455,12.5084471 96.8899663,11.5928856 L96.8899663,13.9207893 C95.5438871,14.8054845 94.2597683,15.286415 92.2483426,15.286415 C88.6122238,15.286415 86.1367188,13.0052278 86.1367188,9.14068235 C86.1367188,5.61775187 88.1481446,2.91778396 91.6915307,2.93321711 L91.6915307,2.93321711 Z M54.8941248,7.52687487 L57.1375901,5.72661818 L57.1375901,3.24354866 L53.7954713,3.24354866 L53.7954713,15.0690995 L57.1375901,15.0690995 L57.1375901,9.35799786 L54.8941248,7.52687487 Z M106.962065,3.0108 C108.029531,2.93321711 108.818798,3.28984813 109.267491,3.70904599 L109.267491,6.95251123 C108.19961,6.00608342 106.528758,5.81963422 105.275412,6.62674652 C104.703214,6.99922781 104.053253,7.71290695 103.589174,8.75276791 L103.589174,15.0690995 L100.494897,15.0690995 L100.494897,3.24354866 L103.589174,3.24354866 L103.589174,6.00608342 C104.316481,4.17454332 105.693333,3.10381604 106.962065,3.0108 L106.962065,3.0108 Z M77.0805208,0.900211765 L80.0512931,8.34224599e-05 L80.0512931,3.41414759 L83.6408376,3.41414759 L83.6408376,5.44715294 L80.0512931,5.44715294 L80.0512931,10.9100727 C80.0359069,12.073816 80.6392931,12.7257626 81.6759861,12.7411957 C82.5114119,12.7566289 83.0374515,12.5551636 83.7647584,12.244415 L83.7647584,14.6344684 C82.7900257,15.0845326 81.9080257,15.286415 80.9486792,15.286415 C78.6278673,15.286415 77.0805208,13.7964898 77.0805208,11.2512706 L77.0805208,5.44715294 L75.2088178,5.44715294 L75.2088178,3.41414759 L77.0805208,3.41414759 L77.0805208,0.900211765 Z M23.0531347,15.0690995 L26.1474119,15.0690995 L26.1474119,3.24354866 L23.0531347,3.24354866 L23.0531347,15.0690995 Z M6.86941188,3.0108 C8.52487723,2.97951658 9.77822376,3.87964492 10.4743426,5.36957005 C11.5264218,3.95722781 12.8878871,3.04166631 14.6053129,3.0108 C17.2513129,2.96408342 18.7828574,5.04380535 18.7828574,7.49559144 L18.7828574,15.0690995 L15.6885802,15.0690995 L15.6885802,8.0232385 C15.6885802,6.68889626 15.0540059,5.36957005 13.5998079,5.36957005 C12.5631149,5.36957005 11.5264218,6.11453262 10.9076495,7.21654332 L10.9076495,15.0690995 L7.82875842,15.0690995 L7.82875842,7.96150588 C7.82875842,6.61131337 7.07067921,5.36957005 5.70921386,5.36957005 C4.57978812,5.36957005 3.63582772,6.17668235 3.09440198,7.21654332 L3.09440198,15.0690995 L0.000124752475,15.0690995 L0.000124752475,3.24354866 L3.09440198,3.24354866 L3.09440198,4.88863957 C4.13109505,3.69361283 5.30667921,3.04166631 6.86941188,3.0108 L6.86941188,3.0108 Z" id="Fill-1" fill="#000000" mask="url(#mask-2)"></path>
                </g>
            </g>
        </g>
    </g>
</svg>